<?xml version="1.0" encoding="UTF-8" standalone="no"?>
<!-- Created with Inkscape (http://www.inkscape.org/) -->

<svg xmlns="http://www.w3.org/2000/svg" version="1.1" xmlns:dc="http://purl.org/dc/elements/1.1/" xmlns:cc="http://creativecommons.org/ns#" xmlns:rdf="http://www.w3.org/1999/02/22-rdf-syntax-ns#">
  <title>Mario emblem</title>
  <metadata>
    <rdf:RDF>
      <cc:Work rdf:about="">
        <cc:License rdf:resource="http://creativecommons.org/publicdomain/mark/1.0/" />
        <dc:format>image/svg+xml</dc:format>
        <dc:type rdf:resource="http://purl.org/dc/dcmitype/StillImage" />
        <dc:title>Mario emblem</dc:title>
      </cc:Work>
    </rdf:RDF>
  </metadata>
  <g transform="translate(0.5,0.5)">
    <rect style="fill:#ff0000;fill-opacity:1;stroke:#ff0000;stroke-opacity:1" width="64" height="64" x="0" y="0" />
    <path style="fill:#ffffff;fill-opacity:1;fill-rule:evenodd;stroke:#ff0000;stroke-width:1px;stroke-linecap:butt;stroke-linejoin:miter;stroke-opacity:1;display:inline"
       d="m 68.585989,24.458599 c 0,11.087908 -9.125407,20.076433 -20.382166,20.076433 -11.256759,0 -20.382166,-8.988525 -20.382166,-20.076433 0,-11.087908 9.125407,-20.0764331 20.382166,-20.0764331 11.256759,0 20.382166,8.9885251 20.382166,20.0764331 z"
       transform="matrix(1.5321298,0,0,1.5554618,-41.854514,-6.0444173)" />
    <path style="fill:#ff0000;fill-opacity:1;stroke:none"
       d="m 5.2,40.05 14.8,-31 12,13.7 12,-13.7 14.720269,31 -9.564912,7.9 L 41.25,25.1 32,36.08961 22.75,25.1 14.75253,47.95 5.2,40.05 z" />
  </g>
</svg>
